<?xml version="1.0" encoding="UTF-8"?>
<svg xmlns="http://www.w3.org/2000/svg" xmlns:xlink="http://www.w3.org/1999/xlink" width="1799px" height="424px" viewBox="0 0 1349 318" version="1.1">
<g id="surface1">
<path style=" stroke:none;fill-rule:nonzero;fill:rgb(74.901961%,61.176471%,100%);fill-opacity:1;" d="M 1247.390625 0 C 1191.363281 0 1145.945312 45.425781 1145.945312 101.464844 C 1145.945312 157.5 1191.363281 202.929688 1247.390625 202.925781 C 1303.417969 202.925781 1348.835938 157.5 1348.835938 101.460938 C 1348.835938 45.425781 1303.414062 0 1247.390625 0 Z M 1285.039062 150.433594 C 1273.699219 156.25 1261.132812 159.265625 1248.390625 159.222656 L 1246.386719 159.222656 C 1233.644531 159.265625 1221.082031 156.25 1209.746094 150.433594 C 1196.097656 143.421875 1187.980469 128.914062 1189.144531 113.613281 L 1193.242188 57.535156 C 1193.304688 56.722656 1193.976562 56.097656 1194.789062 56.09375 L 1212.203125 56.09375 C 1212.632812 56.097656 1213.042969 56.277344 1213.335938 56.589844 C 1213.628906 56.90625 1213.777344 57.324219 1213.746094 57.753906 L 1209.558594 115.101562 C 1208.996094 122.199219 1212.746094 128.945312 1219.070312 132.21875 C 1227.523438 136.550781 1236.886719 138.792969 1246.386719 138.757812 L 1248.390625 138.757812 C 1257.890625 138.792969 1267.257812 136.550781 1275.714844 132.21875 C 1282.039062 128.945312 1285.785156 122.199219 1285.21875 115.101562 L 1281.035156 57.753906 C 1281.003906 57.324219 1281.152344 56.902344 1281.449219 56.59375 C 1281.738281 56.277344 1282.148438 56.097656 1282.578125 56.097656 L 1299.988281 56.097656 C 1300.800781 56.097656 1301.472656 56.722656 1301.535156 57.535156 L 1305.632812 113.613281 C 1306.796875 128.914062 1298.683594 143.421875 1285.039062 150.433594 Z M 1285.039062 150.433594 "/>
<path style=" stroke:none;fill-rule:nonzero;fill:rgb(74.901961%,61.176471%,100%);fill-opacity:1;" d="M 487.453125 293.328125 L 499.953125 214.984375 C 502.851562 214.835938 505.398438 214.703125 507.59375 214.59375 C 509.792969 214.484375 511.761719 214.390625 513.507812 214.316406 C 515.257812 214.242188 516.761719 214.1875 518.027344 214.148438 C 519.292969 214.109375 520.445312 214.089844 521.488281 214.089844 C 528.105469 214.089844 533.5 214.871094 537.667969 216.433594 C 541.832031 217.996094 544.863281 220.378906 546.761719 223.578125 C 548.65625 226.777344 549.605469 230.796875 549.605469 235.628906 C 549.691406 240.214844 548.992188 244.785156 547.542969 249.132812 C 546.273438 252.832031 544.152344 256.175781 541.347656 258.898438 C 538.414062 261.648438 534.878906 263.671875 531.027344 264.816406 C 526.375 266.191406 521.539062 266.847656 516.6875 266.765625 L 511.054688 266.765625 C 509.453125 266.765625 507.851562 266.726562 506.253906 266.652344 C 504.652344 266.578125 502.8125 266.503906 500.730469 266.429688 L 496.382812 293.324219 L 487.457031 293.324219 Z M 507.652344 222.125 L 501.847656 258.84375 C 503.929688 258.917969 505.773438 258.992188 507.371094 259.066406 C 508.972656 259.140625 510.515625 259.199219 512.003906 259.234375 C 513.488281 259.273438 514.976562 259.289062 516.464844 259.289062 C 520.171875 259.371094 523.867188 258.84375 527.402344 257.726562 C 530.203125 256.835938 532.761719 255.308594 534.878906 253.265625 C 536.828125 251.300781 538.296875 248.914062 539.171875 246.289062 C 540.144531 243.316406 540.613281 240.207031 540.566406 237.082031 C 540.566406 233.4375 539.917969 230.5 538.617188 228.265625 C 537.191406 225.929688 535.003906 224.152344 532.425781 223.238281 C 529.597656 222.125 525.804688 221.566406 521.042969 221.566406 C 520.152344 221.566406 519.257812 221.585938 518.367188 221.621094 C 517.472656 221.660156 516.527344 221.695312 515.519531 221.734375 C 514.515625 221.773438 513.363281 221.828125 512.0625 221.902344 C 510.761719 221.972656 509.292969 222.050781 507.65625 222.125 Z M 507.652344 222.125 "/>
<path style=" stroke:none;fill-rule:nonzero;fill:rgb(74.901961%,61.176471%,100%);fill-opacity:1;" d="M 575.492188 294.445312 C 570.808594 294.445312 566.902344 293.683594 563.777344 292.15625 C 560.699219 290.675781 558.1875 288.226562 556.636719 285.183594 C 555 282.058594 554.179688 278.113281 554.179688 273.351562 C 554.175781 269.933594 554.417969 266.523438 554.90625 263.140625 C 555.375 259.886719 556.101562 256.679688 557.082031 253.539062 C 557.988281 250.585938 559.222656 247.742188 560.761719 245.058594 C 562.1875 242.574219 563.953125 240.300781 566.007812 238.308594 C 567.988281 236.394531 570.316406 234.878906 572.871094 233.84375 C 575.550781 232.78125 578.410156 232.25 581.292969 232.28125 C 585.21875 232.167969 589.117188 232.96875 592.675781 234.625 C 595.769531 236.160156 598.292969 238.640625 599.875 241.714844 C 601.546875 244.875 602.386719 248.839844 602.386719 253.597656 C 602.394531 257.128906 602.152344 260.652344 601.660156 264.144531 C 601.203125 267.417969 600.472656 270.648438 599.484375 273.800781 C 598.578125 276.710938 597.363281 279.515625 595.859375 282.167969 C 594.492188 284.59375 592.761719 286.796875 590.726562 288.699219 C 588.757812 290.519531 586.472656 291.957031 583.976562 292.9375 C 581.269531 293.976562 578.390625 294.488281 575.492188 294.445312 Z M 575.160156 287.414062 C 577.160156 287.433594 579.136719 286.953125 580.90625 286.019531 C 582.679688 285.066406 584.253906 283.777344 585.535156 282.222656 C 586.953125 280.5 588.152344 278.605469 589.105469 276.589844 C 590.191406 274.316406 591.050781 271.941406 591.671875 269.5 C 592.351562 266.878906 592.855469 264.210938 593.179688 261.519531 C 593.515625 258.742188 593.683594 255.949219 593.679688 253.152344 C 593.679688 248.464844 592.582031 244.984375 590.390625 242.714844 C 588.195312 240.449219 585.199219 239.3125 581.40625 239.3125 C 579.414062 239.289062 577.453125 239.789062 575.714844 240.761719 C 573.929688 241.792969 572.34375 243.136719 571.027344 244.726562 C 569.5625 246.484375 568.339844 248.4375 567.402344 250.527344 C 566.363281 252.820312 565.503906 255.191406 564.835938 257.617188 C 564.125 260.160156 563.605469 262.75 563.273438 265.371094 C 562.941406 267.980469 562.773438 270.609375 562.773438 273.238281 C 562.773438 278.152344 563.832031 281.742188 565.953125 284.007812 C 568.074219 286.277344 571.140625 287.414062 575.160156 287.414062 Z M 575.160156 287.414062 "/>
<path style=" stroke:none;fill-rule:nonzero;fill:rgb(74.901961%,61.176471%,100%);fill-opacity:1;" d="M 628.605469 233.511719 L 627.378906 240.875 C 629.449219 239.09375 631.648438 237.472656 633.960938 236.019531 C 635.796875 234.875 637.765625 233.957031 639.820312 233.285156 C 641.640625 232.703125 643.542969 232.402344 645.457031 232.394531 C 646.894531 232.382812 648.332031 232.496094 649.75 232.730469 C 650.945312 232.925781 652.121094 233.222656 653.265625 233.621094 L 650.699219 241.992188 C 649.476562 241.613281 648.226562 241.332031 646.960938 241.15625 C 645.722656 240.972656 644.476562 240.882812 643.222656 240.875 C 640.625 240.921875 638.066406 241.492188 635.691406 242.550781 C 632.523438 244.015625 629.601562 245.976562 627.046875 248.351562 L 619.902344 293.328125 L 611.199219 293.328125 L 620.683594 233.511719 Z M 628.605469 233.511719 "/>
<path style=" stroke:none;fill-rule:nonzero;fill:rgb(74.901961%,61.176471%,100%);fill-opacity:1;" d="M 686.960938 284.847656 L 686.851562 291.878906 C 684.53125 292.734375 682.140625 293.386719 679.710938 293.828125 C 677.5 294.230469 675.261719 294.433594 673.015625 294.441406 C 670.722656 294.503906 668.441406 294.085938 666.320312 293.214844 C 664.503906 292.4375 662.996094 291.085938 662.023438 289.363281 C 660.933594 287.246094 660.414062 284.882812 660.519531 282.5 C 660.519531 281.609375 660.574219 280.546875 660.683594 279.320312 C 660.796875 278.09375 660.925781 276.882812 661.074219 275.695312 L 666.65625 240.425781 L 657.28125 240.425781 L 658.398438 234.402344 L 667.882812 233.507812 L 671.453125 219.332031 L 678.816406 219.332031 L 676.585938 233.507812 L 694.996094 233.507812 L 693.769531 240.429688 L 675.472656 240.429688 L 669.894531 275.136719 C 669.820312 275.882812 669.742188 276.589844 669.667969 277.257812 C 669.597656 277.886719 669.558594 278.519531 669.558594 279.15625 C 669.445312 281.128906 670.0625 283.070312 671.285156 284.621094 C 672.4375 285.960938 674.464844 286.632812 677.367188 286.632812 C 678.925781 286.625 680.476562 286.457031 681.996094 286.128906 C 683.597656 285.796875 685.253906 285.367188 686.964844 284.847656 Z M 686.960938 284.847656 "/>
<path style=" stroke:none;fill-rule:nonzero;fill:rgb(74.901961%,61.176471%,100%);fill-opacity:1;" d="M 718.875 294.445312 C 714.1875 294.445312 710.28125 293.683594 707.160156 292.15625 C 704.078125 290.675781 701.570312 288.226562 700.019531 285.183594 C 698.378906 282.058594 697.5625 278.113281 697.5625 273.351562 C 697.554688 269.933594 697.796875 266.523438 698.289062 263.140625 C 698.757812 259.886719 699.484375 256.679688 700.460938 253.539062 C 701.371094 250.585938 702.605469 247.742188 704.144531 245.058594 C 705.570312 242.574219 707.335938 240.300781 709.390625 238.308594 C 711.371094 236.394531 713.699219 234.878906 716.25 233.84375 C 718.933594 232.78125 721.792969 232.25 724.675781 232.28125 C 728.601562 232.167969 732.496094 232.96875 736.058594 234.625 C 739.152344 236.160156 741.675781 238.640625 743.257812 241.714844 C 744.929688 244.875 745.765625 248.839844 745.765625 253.597656 C 745.773438 257.128906 745.53125 260.652344 745.042969 264.144531 C 744.582031 267.417969 743.855469 270.648438 742.867188 273.800781 C 741.960938 276.710938 740.746094 279.515625 739.242188 282.167969 C 737.871094 284.59375 736.140625 286.796875 734.109375 288.699219 C 732.140625 290.519531 729.851562 291.957031 727.359375 292.9375 C 724.652344 293.976562 721.773438 294.488281 718.875 294.445312 Z M 718.539062 287.414062 C 720.542969 287.433594 722.515625 286.953125 724.285156 286.019531 C 726.0625 285.066406 727.636719 283.777344 728.917969 282.222656 C 730.335938 280.5 731.535156 278.605469 732.488281 276.589844 C 733.570312 274.316406 734.429688 271.941406 735.054688 269.5 C 735.734375 266.878906 736.238281 264.210938 736.5625 261.519531 C 736.898438 258.742188 737.0625 255.949219 737.0625 253.152344 C 737.0625 248.464844 735.964844 244.984375 733.769531 242.714844 C 731.574219 240.449219 728.582031 239.3125 724.789062 239.3125 C 722.796875 239.289062 720.835938 239.789062 719.097656 240.761719 C 717.3125 241.792969 715.722656 243.136719 714.410156 244.726562 C 712.941406 246.484375 711.722656 248.4375 710.785156 250.527344 C 709.746094 252.820312 708.886719 255.191406 708.21875 257.617188 C 707.507812 260.160156 706.988281 262.75 706.65625 265.371094 C 706.324219 267.980469 706.15625 270.609375 706.15625 273.238281 C 706.15625 278.152344 707.214844 281.742188 709.335938 284.007812 C 711.453125 286.277344 714.523438 287.414062 718.539062 287.414062 Z M 718.539062 287.414062 "/>
<path style=" stroke:none;fill-rule:nonzero;fill:rgb(74.901961%,61.176471%,100%);fill-opacity:1;" d="M 780.804688 293.328125 L 817.621094 214.316406 L 828.558594 214.316406 L 840.941406 293.328125 L 831.234375 293.328125 L 828.109375 272.90625 L 800.101562 272.90625 L 790.617188 293.328125 Z M 803.007812 265.539062 L 827.558594 265.539062 L 821.867188 223.242188 Z M 803.007812 265.539062 "/>
<path style=" stroke:none;fill-rule:nonzero;fill:rgb(74.901961%,61.176471%,100%);fill-opacity:1;" d="M 863.707031 210.742188 L 872.523438 210.742188 L 862.035156 277.257812 C 861.882812 278.078125 861.753906 278.914062 861.644531 279.769531 C 861.535156 280.566406 861.480469 281.367188 861.476562 282.167969 C 861.472656 282.894531 861.605469 283.613281 861.867188 284.289062 C 862.144531 284.984375 862.660156 285.554688 863.316406 285.910156 C 864.195312 286.355469 865.175781 286.570312 866.164062 286.523438 C 867.078125 286.519531 867.992188 286.445312 868.894531 286.296875 C 869.894531 286.132812 870.882812 285.910156 871.851562 285.628906 L 871.742188 292.660156 C 870.214844 293.210938 868.648438 293.640625 867.054688 293.941406 C 865.363281 294.273438 863.644531 294.441406 861.921875 294.445312 C 858.574219 294.445312 856.136719 293.605469 854.613281 291.933594 C 853.089844 290.257812 852.328125 288.007812 852.328125 285.183594 C 852.328125 284.367188 852.363281 283.492188 852.4375 282.558594 C 852.5 281.714844 852.613281 280.875 852.773438 280.046875 Z M 863.707031 210.742188 "/>
<path style=" stroke:none;fill-rule:nonzero;fill:rgb(74.901961%,61.176471%,100%);fill-opacity:1;" d="M 888.144531 261.1875 C 890.429688 261.335938 892.726562 261.316406 895.007812 261.132812 C 897.425781 260.945312 899.785156 260.667969 902.09375 260.292969 C 908.117188 259.328125 912.824219 257.710938 916.207031 255.441406 C 919.59375 253.167969 921.285156 250.210938 921.285156 246.566406 C 921.417969 244.480469 920.523438 242.457031 918.886719 241.152344 C 917.285156 239.925781 914.851562 239.3125 911.578125 239.3125 C 907.441406 239.277344 903.417969 240.679688 900.195312 243.273438 C 896.667969 246.164062 893.972656 249.9375 892.386719 254.210938 C 890.429688 259.398438 889.484375 264.910156 889.597656 270.449219 C 889.507812 273.570312 890.097656 276.675781 891.324219 279.546875 C 892.371094 281.921875 894.175781 283.886719 896.457031 285.125 C 899.03125 286.421875 901.890625 287.054688 904.773438 286.964844 C 906.585938 286.957031 908.394531 286.808594 910.183594 286.515625 C 912.082031 286.21875 914.050781 285.8125 916.097656 285.289062 C 918.203125 284.75 920.269531 284.078125 922.289062 283.28125 L 923.628906 290.421875 C 920.484375 291.738281 917.210938 292.730469 913.867188 293.378906 C 910.394531 294.078125 906.863281 294.433594 903.320312 294.441406 C 898.558594 294.441406 894.503906 293.527344 891.160156 291.703125 C 887.847656 289.921875 885.179688 287.152344 883.515625 283.78125 C 881.671875 279.898438 880.773438 275.632812 880.890625 271.335938 C 880.832031 266.011719 881.566406 260.710938 883.066406 255.601562 C 884.371094 251.121094 886.53125 246.933594 889.425781 243.269531 C 892.15625 239.855469 895.628906 237.109375 899.578125 235.234375 C 903.828125 233.277344 908.460938 232.304688 913.136719 232.386719 C 916.183594 232.320312 919.214844 232.851562 922.0625 233.949219 C 924.398438 234.847656 926.433594 236.398438 927.917969 238.414062 C 929.324219 240.441406 930.046875 242.867188 929.984375 245.335938 C 929.984375 250.765625 927.695312 255.304688 923.121094 258.949219 C 918.546875 262.59375 912.207031 265.085938 904.097656 266.425781 C 901.21875 266.9375 898.3125 267.253906 895.394531 267.375 C 892.753906 267.488281 890.109375 267.46875 887.472656 267.320312 Z M 888.144531 261.1875 "/>
<path style=" stroke:none;fill-rule:nonzero;fill:rgb(74.901961%,61.176471%,100%);fill-opacity:1;" d="M 932.890625 314.3125 L 935.34375 307.390625 C 937.867188 308.398438 940.484375 309.144531 943.15625 309.625 C 945.839844 310.128906 948.566406 310.390625 951.300781 310.40625 C 954.242188 310.488281 957.160156 309.898438 959.835938 308.675781 C 962.257812 307.445312 964.261719 305.523438 965.585938 303.148438 C 967.238281 300.105469 968.300781 296.769531 968.707031 293.328125 L 969.265625 289.199219 C 967.578125 290.074219 965.824219 290.820312 964.023438 291.429688 C 962.160156 292.082031 960.257812 292.621094 958.332031 293.050781 C 956.648438 293.4375 954.925781 293.644531 953.199219 293.664062 C 949.9375 293.761719 946.710938 292.949219 943.882812 291.320312 C 941.320312 289.765625 939.296875 287.46875 938.078125 284.734375 C 936.714844 281.605469 936.050781 278.214844 936.128906 274.800781 C 936.097656 269.328125 936.753906 263.875 938.078125 258.5625 C 939.269531 253.714844 941.332031 249.117188 944.160156 245.003906 C 946.820312 241.144531 950.355469 237.96875 954.480469 235.742188 C 958.976562 233.421875 963.984375 232.269531 969.042969 232.394531 C 970.457031 232.394531 971.980469 232.449219 973.617188 232.558594 C 975.246094 232.671875 976.867188 232.875 978.472656 233.175781 C 980.070312 233.472656 981.578125 233.808594 982.992188 234.179688 C 984.246094 234.5 985.476562 234.910156 986.671875 235.40625 L 977.410156 293.105469 C 976.144531 301.4375 973.429688 307.648438 969.265625 311.742188 C 965.101562 315.835938 959.371094 317.882812 952.082031 317.878906 C 948.730469 317.878906 945.386719 317.5625 942.09375 316.933594 C 938.953125 316.347656 935.871094 315.46875 932.890625 314.3125 Z M 976.855469 241.101562 C 975.597656 240.609375 974.3125 240.199219 973.003906 239.871094 C 971.269531 239.46875 969.488281 239.28125 967.707031 239.316406 C 964.390625 239.285156 961.140625 240.257812 958.386719 242.105469 C 955.496094 244.074219 953.058594 246.644531 951.246094 249.636719 C 949.21875 252.933594 947.679688 256.503906 946.671875 260.238281 C 945.589844 264.183594 945.046875 268.257812 945.054688 272.347656 C 945.054688 276.964844 946.132812 280.441406 948.292969 282.785156 C 950.449219 285.125 953.351562 286.296875 956.996094 286.300781 C 958.503906 286.277344 960 286.070312 961.457031 285.6875 C 963.113281 285.269531 964.738281 284.730469 966.3125 284.066406 C 967.734375 283.492188 969.097656 282.78125 970.382812 281.945312 Z M 976.855469 241.101562 "/>
<path style=" stroke:none;fill-rule:nonzero;fill:rgb(74.901961%,61.176471%,100%);fill-opacity:1;" d="M 1012 233.511719 L 1010.773438 240.875 C 1012.84375 239.09375 1015.042969 237.472656 1017.355469 236.019531 C 1019.191406 234.875 1021.15625 233.957031 1023.214844 233.285156 C 1025.035156 232.703125 1026.9375 232.402344 1028.847656 232.394531 C 1030.289062 232.382812 1031.726562 232.496094 1033.144531 232.730469 C 1034.339844 232.925781 1035.515625 233.222656 1036.660156 233.621094 L 1034.09375 241.992188 C 1032.871094 241.613281 1031.621094 241.332031 1030.355469 241.15625 C 1029.117188 240.972656 1027.867188 240.882812 1026.617188 240.875 C 1024.019531 240.921875 1021.457031 241.492188 1019.085938 242.550781 C 1015.914062 244.015625 1012.996094 245.976562 1010.4375 248.351562 L 1003.296875 293.328125 L 994.59375 293.328125 L 1004.078125 233.511719 Z M 1012 233.511719 "/>
<path style=" stroke:none;fill-rule:nonzero;fill:rgb(74.901961%,61.176471%,100%);fill-opacity:1;" d="M 1043.246094 261.1875 C 1045.53125 261.335938 1047.828125 261.316406 1050.109375 261.132812 C 1052.527344 260.945312 1054.886719 260.667969 1057.195312 260.292969 C 1063.21875 259.328125 1067.925781 257.710938 1071.308594 255.441406 C 1074.695312 253.167969 1076.386719 250.210938 1076.386719 246.566406 C 1076.519531 244.480469 1075.625 242.457031 1073.988281 241.152344 C 1072.386719 239.925781 1069.953125 239.3125 1066.679688 239.3125 C 1062.542969 239.277344 1058.519531 240.679688 1055.296875 243.273438 C 1051.769531 246.164062 1049.074219 249.9375 1047.488281 254.210938 C 1045.53125 259.398438 1044.585938 264.910156 1044.699219 270.449219 C 1044.609375 273.570312 1045.199219 276.675781 1046.425781 279.546875 C 1047.472656 281.921875 1049.277344 283.886719 1051.558594 285.125 C 1054.132812 286.421875 1056.992188 287.054688 1059.875 286.964844 C 1061.6875 286.957031 1063.496094 286.808594 1065.285156 286.515625 C 1067.179688 286.21875 1069.152344 285.8125 1071.199219 285.289062 C 1073.304688 284.75 1075.371094 284.078125 1077.390625 283.28125 L 1078.730469 290.421875 C 1075.585938 291.738281 1072.3125 292.730469 1068.964844 293.378906 C 1065.496094 294.078125 1061.964844 294.433594 1058.421875 294.441406 C 1053.660156 294.441406 1049.605469 293.527344 1046.261719 291.703125 C 1042.949219 289.921875 1040.277344 287.152344 1038.617188 283.78125 C 1036.773438 279.898438 1035.875 275.632812 1035.992188 271.335938 C 1035.933594 266.011719 1036.667969 260.710938 1038.167969 255.601562 C 1039.472656 251.121094 1041.632812 246.933594 1044.527344 243.269531 C 1047.257812 239.855469 1050.730469 237.109375 1054.679688 235.234375 C 1058.929688 233.277344 1063.5625 232.304688 1068.238281 232.386719 C 1071.285156 232.320312 1074.316406 232.851562 1077.160156 233.949219 C 1079.5 234.847656 1081.535156 236.398438 1083.019531 238.414062 C 1084.425781 240.441406 1085.148438 242.867188 1085.085938 245.335938 C 1085.085938 250.765625 1082.796875 255.304688 1078.222656 258.949219 C 1073.648438 262.59375 1067.308594 265.085938 1059.199219 266.425781 C 1056.320312 266.9375 1053.414062 267.253906 1050.496094 267.375 C 1047.855469 267.488281 1045.210938 267.46875 1042.574219 267.320312 Z M 1043.246094 261.1875 "/>
<path style=" stroke:none;fill-rule:nonzero;fill:rgb(50.588235%,5.490196%,33.72549%);fill-opacity:1;" d="M 285.042969 55.007812 L 302.992188 55.007812 C 303.875 55.007812 304.589844 55.726562 304.589844 56.609375 L 304.589844 158.832031 C 304.589844 159.714844 303.875 160.429688 302.992188 160.429688 L 285.042969 160.429688 C 284.160156 160.429688 283.445312 159.714844 283.445312 158.832031 L 283.445312 56.609375 C 283.445312 55.726562 284.160156 55.007812 285.042969 55.007812 Z M 285.042969 55.007812 "/>
<path style=" stroke:none;fill-rule:nonzero;fill:rgb(50.588235%,5.490196%,33.72549%);fill-opacity:1;" d="M 428.042969 58.269531 L 428.039062 58.269531 C 418.476562 55.246094 407.058594 53.011719 392.207031 53.011719 C 377.355469 53.011719 365.980469 55.234375 356.382812 58.269531 C 342.113281 62.78125 332.433594 76.054688 332.5 91.023438 L 332.5 123.542969 C 332.433594 138.511719 342.113281 151.785156 356.386719 156.296875 C 379.75 163.34375 404.675781 163.34375 428.039062 156.296875 C 442.3125 151.785156 451.992188 138.511719 451.925781 123.542969 L 451.925781 91.023438 C 451.992188 76.054688 442.316406 62.785156 428.046875 58.269531 Z M 430.78125 91.023438 L 430.78125 123.542969 C 430.816406 129.289062 427.117188 134.394531 421.644531 136.144531 C 402.4375 141.84375 381.992188 141.84375 362.785156 136.144531 C 357.308594 134.398438 353.601562 129.292969 353.636719 123.542969 L 353.636719 91.023438 C 353.601562 85.277344 357.308594 80.175781 362.785156 78.433594 C 372.3125 75.542969 382.222656 74.097656 392.179688 74.148438 C 403 74.222656 412.910156 75.660156 421.640625 78.433594 C 427.113281 80.179688 430.816406 85.28125 430.78125 91.023438 Z M 430.78125 91.023438 "/>
<path style=" stroke:none;fill-rule:nonzero;fill:rgb(50.588235%,5.490196%,33.72549%);fill-opacity:1;" d="M 947.894531 47.875 L 922.890625 47.875 L 922.890625 10.851562 C 922.890625 10.425781 922.722656 10.019531 922.421875 9.71875 C 922.125 9.417969 921.714844 9.25 921.292969 9.25 L 903.347656 9.25 C 902.464844 9.25 901.75 9.96875 901.75 10.851562 L 901.75 131.25 C 901.765625 147.328125 914.792969 160.363281 930.871094 160.378906 L 941 160.378906 C 941.425781 160.382812 941.832031 160.214844 942.132812 159.914062 C 942.433594 159.613281 942.601562 159.207031 942.597656 158.78125 L 942.597656 140.832031 C 942.601562 140.40625 942.433594 140 942.132812 139.699219 C 941.832031 139.398438 941.425781 139.230469 941 139.230469 L 930.871094 139.230469 C 926.464844 139.226562 922.894531 135.65625 922.890625 131.25 L 922.890625 69.027344 L 947.894531 69.027344 C 948.320312 69.027344 948.726562 68.859375 949.027344 68.558594 C 949.328125 68.257812 949.496094 67.851562 949.492188 67.425781 L 949.492188 49.476562 C 949.496094 49.050781 949.328125 48.644531 949.027344 48.34375 C 948.726562 48.042969 948.320312 47.875 947.894531 47.875 Z M 947.894531 47.875 "/>
<path style=" stroke:none;fill-rule:nonzero;fill:rgb(50.588235%,5.490196%,33.72549%);fill-opacity:1;" d="M 235.632812 62.328125 C 223.917969 56.320312 210.9375 53.207031 197.773438 53.246094 L 195.703125 53.246094 C 182.535156 53.207031 169.550781 56.320312 157.832031 62.328125 C 143.730469 69.570312 135.34375 84.570312 136.558594 100.378906 L 140.832031 158.945312 C 140.890625 159.78125 141.585938 160.429688 142.425781 160.429688 L 160.421875 160.429688 C 160.863281 160.429688 161.289062 160.246094 161.589844 159.917969 C 161.894531 159.597656 162.046875 159.160156 162.011719 158.71875 L 157.640625 98.84375 C 157.054688 91.503906 160.929688 84.53125 167.472656 81.15625 C 176.203125 76.671875 185.882812 74.355469 195.699219 74.398438 L 197.769531 74.398438 C 207.585938 74.355469 217.265625 76.675781 226 81.15625 C 232.535156 84.535156 236.410156 91.507812 235.828125 98.84375 L 231.449219 158.71875 C 231.417969 159.160156 231.570312 159.59375 231.875 159.917969 C 232.175781 160.242188 232.597656 160.429688 233.042969 160.429688 L 251.039062 160.429688 C 251.878906 160.429688 252.574219 159.78125 252.636719 158.945312 L 256.910156 100.378906 C 258.125 84.566406 249.730469 69.566406 235.621094 62.328125 Z M 235.632812 62.328125 "/>
<path style=" stroke:none;fill-rule:nonzero;fill:rgb(50.588235%,5.490196%,33.72549%);fill-opacity:1;" d="M 856.125 62.328125 C 844.414062 56.320312 831.433594 53.207031 818.269531 53.246094 L 816.195312 53.246094 C 803.03125 53.207031 790.046875 56.320312 778.328125 62.328125 C 764.222656 69.570312 755.835938 84.570312 757.050781 100.378906 L 761.328125 158.945312 C 761.386719 159.78125 762.082031 160.429688 762.917969 160.429688 L 780.914062 160.429688 C 781.359375 160.429688 781.78125 160.246094 782.082031 159.917969 C 782.390625 159.597656 782.542969 159.160156 782.507812 158.71875 L 778.136719 98.84375 C 777.550781 91.503906 781.425781 84.53125 787.964844 81.15625 C 796.699219 76.671875 806.378906 74.355469 816.191406 74.398438 L 818.265625 74.398438 C 828.082031 74.355469 837.761719 76.675781 846.492188 81.15625 C 853.03125 84.535156 856.90625 91.507812 856.324219 98.84375 L 851.945312 158.71875 C 851.914062 159.160156 852.066406 159.59375 852.371094 159.917969 C 852.671875 160.242188 853.09375 160.429688 853.539062 160.429688 L 871.535156 160.429688 C 872.375 160.429688 873.070312 159.78125 873.132812 158.945312 L 877.40625 100.378906 C 878.621094 84.566406 870.226562 69.566406 856.117188 62.328125 Z M 856.125 62.328125 "/>
<path style=" stroke:none;fill-rule:nonzero;fill:rgb(50.588235%,5.490196%,33.72549%);fill-opacity:1;" d="M 114.652344 55.007812 L 96.660156 55.007812 C 96.214844 55.007812 95.792969 55.195312 95.492188 55.519531 C 95.1875 55.84375 95.03125 56.277344 95.066406 56.722656 L 99.390625 115.984375 C 99.972656 123.320312 96.101562 130.292969 89.566406 133.671875 C 80.828125 138.148438 71.148438 140.464844 61.332031 140.429688 L 59.257812 140.429688 C 49.445312 140.464844 39.765625 138.148438 31.03125 133.671875 C 24.496094 130.289062 20.621094 123.320312 21.203125 115.984375 L 25.527344 56.71875 C 25.5625 56.277344 25.40625 55.84375 25.105469 55.519531 C 24.800781 55.195312 24.378906 55.011719 23.9375 55.007812 L 5.941406 55.007812 C 5.101562 55.011719 4.40625 55.65625 4.339844 56.496094 L 0.105469 114.445312 C -1.09375 130.257812 7.292969 145.25 21.394531 152.496094 C 33.109375 158.507812 46.09375 161.621094 59.257812 161.578125 L 61.332031 161.578125 C 74.496094 161.621094 87.484375 158.507812 99.199219 152.496094 C 113.300781 145.25 121.683594 130.257812 120.480469 114.445312 L 116.246094 56.496094 C 116.183594 55.660156 115.488281 55.011719 114.648438 55.007812 Z M 114.652344 55.007812 "/>
<path style=" stroke:none;fill-rule:nonzero;fill:rgb(50.588235%,5.490196%,33.72549%);fill-opacity:1;" d="M 285.042969 12.308594 L 302.992188 12.308594 C 303.875 12.308594 304.589844 13.027344 304.589844 13.910156 L 304.589844 38.371094 C 304.589844 39.253906 303.875 39.96875 302.992188 39.96875 L 285.042969 39.96875 C 284.160156 39.96875 283.445312 39.253906 283.445312 38.371094 L 283.445312 13.910156 C 283.445312 13.027344 284.160156 12.308594 285.042969 12.308594 Z M 285.042969 12.308594 "/>
<path style=" stroke:none;fill-rule:nonzero;fill:rgb(50.588235%,5.490196%,33.72549%);fill-opacity:1;" d="M 604.949219 145.8125 C 604.949219 145.8125 599.789062 141.035156 593.5625 135.039062 C 592.148438 133.679688 591.347656 131.800781 591.34375 129.839844 L 591.34375 10.851562 C 591.34375 9.96875 590.628906 9.25 589.746094 9.25 L 571.796875 9.25 C 570.914062 9.25 570.199219 9.96875 570.199219 10.851562 L 570.199219 59.386719 C 569.289062 59.011719 568.417969 58.570312 567.464844 58.269531 L 567.457031 58.269531 C 557.898438 55.246094 546.480469 53.011719 531.628906 53.011719 C 516.773438 53.011719 505.402344 55.234375 495.804688 58.269531 C 481.53125 62.78125 471.851562 76.054688 471.917969 91.023438 L 471.917969 123.542969 C 471.851562 138.511719 481.53125 151.785156 495.804688 156.296875 C 519.167969 163.34375 544.09375 163.34375 567.457031 156.296875 C 571.738281 154.910156 575.699219 152.691406 579.117188 149.765625 C 585.554688 155.988281 590.929688 160.984375 590.929688 160.984375 C 591.84375 161.824219 593.265625 161.769531 594.105469 160.859375 L 605.074219 148.988281 C 605.914062 148.078125 605.859375 146.65625 604.949219 145.8125 Z M 570.199219 123.542969 C 570.238281 129.289062 566.535156 134.394531 561.0625 136.144531 C 541.855469 141.84375 521.410156 141.84375 502.207031 136.144531 C 496.726562 134.398438 493.023438 129.292969 493.058594 123.542969 L 493.058594 91.023438 C 493.023438 85.277344 496.730469 80.175781 502.207031 78.433594 C 511.734375 75.542969 521.640625 74.097656 531.601562 74.148438 C 542.421875 74.222656 552.332031 75.660156 561.0625 78.433594 C 566.535156 80.179688 570.238281 85.28125 570.199219 91.023438 Z M 570.199219 123.542969 "/>
<path style=" stroke:none;fill-rule:nonzero;fill:rgb(50.588235%,5.490196%,33.72549%);fill-opacity:1;" d="M 714.511719 58.269531 L 714.507812 58.269531 C 704.945312 55.246094 693.527344 53.011719 678.675781 53.011719 C 663.824219 53.011719 652.449219 55.234375 642.851562 58.269531 C 628.582031 62.78125 618.902344 76.054688 618.964844 91.023438 L 618.964844 123.542969 C 618.902344 138.511719 628.582031 151.785156 642.851562 156.296875 C 666.21875 163.34375 691.140625 163.34375 714.507812 156.296875 C 728.777344 151.785156 738.457031 138.511719 738.394531 123.542969 L 738.394531 91.023438 C 738.457031 76.054688 728.78125 62.785156 714.511719 58.269531 Z M 717.25 91.023438 L 717.25 123.542969 C 717.285156 129.289062 713.585938 134.394531 708.113281 136.144531 C 688.90625 141.84375 668.460938 141.84375 649.253906 136.144531 C 643.777344 134.398438 640.070312 129.292969 640.105469 123.542969 L 640.105469 91.023438 C 640.070312 85.277344 643.777344 80.175781 649.253906 78.433594 C 658.78125 75.542969 668.691406 74.097656 678.648438 74.148438 C 689.46875 74.222656 699.378906 75.660156 708.109375 78.433594 C 713.582031 80.179688 717.285156 85.28125 717.25 91.023438 Z M 717.25 91.023438 "/>
<path style=" stroke:none;fill-rule:nonzero;fill:rgb(50.588235%,5.490196%,33.72549%);fill-opacity:1;" d="M 1059.75 58.269531 L 1059.746094 58.269531 C 1050.183594 55.246094 1038.765625 53.011719 1023.914062 53.011719 C 1009.0625 53.011719 997.6875 55.234375 988.089844 58.269531 C 973.820312 62.78125 964.140625 76.054688 964.203125 91.023438 L 964.203125 123.542969 C 964.140625 138.511719 973.820312 151.785156 988.089844 156.296875 C 1011.457031 163.34375 1036.378906 163.34375 1059.746094 156.296875 C 1074.015625 151.785156 1083.695312 138.511719 1083.632812 123.542969 L 1083.632812 91.023438 C 1083.695312 76.054688 1074.019531 62.785156 1059.75 58.269531 Z M 1062.488281 91.023438 L 1062.488281 123.542969 C 1062.527344 129.289062 1058.824219 134.394531 1053.351562 136.148438 C 1034.144531 141.84375 1013.699219 141.84375 994.492188 136.148438 C 989.015625 134.398438 985.308594 129.292969 985.34375 123.542969 L 985.34375 91.023438 C 985.3125 85.277344 989.015625 80.175781 994.492188 78.433594 C 1004.023438 75.542969 1013.929688 74.097656 1023.886719 74.148438 C 1034.710938 74.222656 1044.621094 75.660156 1053.351562 78.433594 C 1058.824219 80.179688 1062.527344 85.28125 1062.488281 91.023438 Z M 1062.488281 91.023438 "/>
<path style=" stroke:none;fill-rule:nonzero;fill:rgb(50.588235%,5.490196%,33.72549%);fill-opacity:1;" d="M 1098.273438 55.527344 C 1090.582031 55.523438 1084.347656 49.289062 1084.347656 41.597656 C 1084.347656 33.90625 1090.582031 27.671875 1098.273438 27.671875 C 1105.964844 27.671875 1112.199219 33.910156 1112.195312 41.601562 C 1112.1875 49.289062 1105.957031 55.519531 1098.273438 55.527344 Z M 1098.273438 29.027344 C 1091.332031 29.027344 1085.707031 34.65625 1085.703125 41.597656 C 1085.703125 48.539062 1091.332031 54.167969 1098.269531 54.167969 C 1105.210938 54.167969 1110.839844 48.542969 1110.839844 41.601562 C 1110.832031 34.660156 1105.210938 29.035156 1098.273438 29.027344 Z M 1098.273438 29.027344 "/>
<path style=" stroke:none;fill-rule:nonzero;fill:rgb(50.588235%,5.490196%,33.72549%);fill-opacity:1;" d="M 1103.625 48.125 C 1103.277344 48.125 1102.929688 48.0625 1102.601562 47.945312 C 1102.226562 47.808594 1101.878906 47.617188 1101.566406 47.375 C 1101.179688 47.078125 1100.820312 46.75 1100.492188 46.386719 C 1100.074219 45.929688 1099.6875 45.445312 1099.324219 44.941406 C 1098.914062 44.378906 1098.480469 43.730469 1098.023438 42.992188 C 1097.871094 43.007812 1097.71875 43.015625 1097.566406 43.011719 L 1096.171875 43.011719 C 1095.835938 43.011719 1095.511719 43.007812 1095.195312 42.992188 L 1095.195312 47.929688 L 1093.050781 47.929688 L 1093.050781 34.625 C 1093.671875 34.585938 1094.242188 34.554688 1094.761719 34.53125 C 1095.28125 34.503906 1095.765625 34.488281 1096.210938 34.472656 C 1096.664062 34.460938 1097.101562 34.453125 1097.53125 34.453125 C 1098.386719 34.441406 1099.242188 34.511719 1100.085938 34.664062 C 1100.703125 34.765625 1101.285156 35 1101.804688 35.347656 C 1102.242188 35.65625 1102.578125 36.085938 1102.78125 36.582031 C 1103.003906 37.167969 1103.109375 37.792969 1103.09375 38.421875 C 1103.113281 39.09375 1102.992188 39.765625 1102.742188 40.386719 C 1102.523438 40.90625 1102.171875 41.359375 1101.726562 41.699219 C 1101.246094 42.054688 1100.703125 42.320312 1100.132812 42.488281 C 1100.546875 43.105469 1100.9375 43.640625 1101.296875 44.089844 C 1101.605469 44.480469 1101.9375 44.851562 1102.296875 45.195312 C 1102.550781 45.441406 1102.835938 45.660156 1103.140625 45.839844 C 1103.363281 45.972656 1103.613281 46.050781 1103.871094 46.058594 C 1103.898438 46.058594 1103.941406 46.058594 1104.003906 46.046875 C 1104.054688 46.042969 1104.105469 46.035156 1104.152344 46.019531 L 1104.171875 48.070312 C 1104.109375 48.085938 1104.035156 48.097656 1103.949219 48.109375 C 1103.839844 48.121094 1103.734375 48.128906 1103.625 48.128906 Z M 1097.511719 41.25 C 1098.011719 41.253906 1098.511719 41.210938 1099 41.117188 C 1099.378906 41.046875 1099.738281 40.902344 1100.054688 40.6875 C 1100.332031 40.496094 1100.546875 40.222656 1100.671875 39.910156 C 1100.816406 39.523438 1100.882812 39.113281 1100.871094 38.703125 C 1100.894531 38.191406 1100.792969 37.679688 1100.578125 37.214844 C 1100.359375 36.820312 1099.992188 36.53125 1099.5625 36.40625 C 1098.921875 36.21875 1098.253906 36.136719 1097.585938 36.160156 L 1096.960938 36.160156 C 1096.78125 36.160156 1096.605469 36.164062 1096.433594 36.179688 C 1096.265625 36.191406 1096.082031 36.199219 1095.882812 36.207031 C 1095.6875 36.214844 1095.457031 36.230469 1095.191406 36.253906 L 1095.191406 41.191406 C 1095.414062 41.207031 1095.628906 41.214844 1095.816406 41.222656 L 1096.386719 41.242188 C 1096.578125 41.246094 1096.761719 41.25 1096.945312 41.25 Z M 1097.511719 41.25 "/>
</g>
</svg>
